HIERARCHY
ROOT Hips
{
	OFFSET 0.000000 0.000000 0.000000
	CHANNELS 6 Xposition Yposition Zposition Xrotation Yrotation Zrotation
	JOINT LeftUpLeg_virtual
	{
		OFFSET 0.000000 0.000000 0.000000
		CHANNELS 3 Xrotation Yrotation Zrotation
		JOINT LeftUpLeg
		{
			OFFSET 11.394100 -6.187798 -0.413800
			CHANNELS 3 Xrotation Yrotation Zrotation
			JOINT LeftLeg
			{
				OFFSET 0.430247 -32.302673 3.732800
				CHANNELS 3 Xrotation Yrotation Zrotation
				JOINT LeftFoot
				{
					OFFSET -0.430247 -48.264931 -6.423300
					CHANNELS 3 Xrotation Yrotation Zrotation
					JOINT LeftToeBase
					{
						OFFSET 4.230900 -16.068199 23.438400
						CHANNELS 3 Xrotation Yrotation Zrotation
						JOINT LeftToe_End
						{
							OFFSET 4.510700 0.695400 19.974600
							CHANNELS 3 Xrotation Yrotation Zrotation
							End Site
							{
								OFFSET 0 0 0
							}
						}
					}
				}
			}
		}
	}
	JOINT RightUpLeg_virtual
	{
		OFFSET 0.000000 0.000000 0.000000
		CHANNELS 3 Xrotation Yrotation Zrotation
		JOINT RightUpLeg
		{
			OFFSET -11.333700 -6.187798 -0.413800
			CHANNELS 3 Xrotation Yrotation Zrotation
			JOINT RightLeg
			{
				OFFSET -0.430392 -32.302628 3.733000
				CHANNELS 3 Xrotation Yrotation Zrotation
				JOINT RightFoot
				{
					OFFSET 0.430392 -48.264973 -6.423500
					CHANNELS 3 Xrotation Yrotation Zrotation
					JOINT RightToeBase
					{
						OFFSET -4.230900 -16.068199 23.438400
						CHANNELS 3 Xrotation Yrotation Zrotation
						JOINT RightToe_End
						{
							OFFSET -4.510700 0.695400 19.974600
							CHANNELS 3 Xrotation Yrotation Zrotation
							End Site
							{
								OFFSET 0 0 0
							}
						}
					}
				}
			}
		}
	}
	JOINT Spine_virtual
	{
		OFFSET 0.000000 0.000000 0.000000
		CHANNELS 3 Xrotation Yrotation Zrotation
		JOINT Spine
		{
			OFFSET -0.002400 12.777504 0.315300
			CHANNELS 3 Xrotation Yrotation Zrotation
			JOINT Spine1
			{
				OFFSET -0.002067 5.816869 0.032633
				CHANNELS 3 Xrotation Yrotation Zrotation
				JOINT Spine1_split
				{
					OFFSET -0.002067 5.816869 0.032633
					CHANNELS 3 Xrotation Yrotation Zrotation
					JOINT Spine2
					{
						OFFSET -0.002067 5.816869 0.032633
						CHANNELS 3 Xrotation Yrotation Zrotation
						JOINT Neck_virtual
						{
							OFFSET 0.000000 0.000000 0.000000
							CHANNELS 3 Xrotation Yrotation Zrotation
							JOINT Neck
							{
								OFFSET -0.003700 21.199493 -0.826900
								CHANNELS 3 Xrotation Yrotation Zrotation
								JOINT Head
								{
									OFFSET 0.000000 20.442200 4.834800
									CHANNELS 3 Xrotation Yrotation Zrotation
									JOINT HeadTop_End
									{
										OFFSET 0.000000 34.668396 4.968400
										CHANNELS 3 Xrotation Yrotation Zrotation
										End Site
										{
											OFFSET 0 0 0
										}
									}
								}
							}
						}
						JOINT LeftShoulder_virtual
						{
							OFFSET 0.000000 0.000000 0.000000
							CHANNELS 3 Xrotation Yrotation Zrotation
							JOINT LeftShoulder
							{
								OFFSET 3.288150 8.794197 -1.372250
								CHANNELS 3 Xrotation Yrotation Zrotation
								JOINT LeftShoulder_split
								{
									OFFSET 3.288150 8.794197 -1.372250
									CHANNELS 3 Xrotation Yrotation Zrotation
									JOINT LeftArm
									{
										OFFSET 11.953299 -2.279007 -0.146200
										CHANNELS 3 Xrotation Yrotation Zrotation
										JOINT LeftForeArm
										{
											OFFSET 18.448900 0.000000 0.000000
											CHANNELS 3 Xrotation Yrotation Zrotation
											JOINT LeftHand
											{
												OFFSET 29.527798 0.000000 0.000000
												CHANNELS 3 Xrotation Yrotation Zrotation
												End Site
												{
													OFFSET 0 0 0
												}
											}
										}
									}
								}
							}
						}
						JOINT RightShoulder_virtual
						{
							OFFSET 0.000000 0.000000 0.000000
							CHANNELS 3 Xrotation Yrotation Zrotation
							JOINT RightShoulder
							{
								OFFSET -3.249400 8.794197 -1.372250
								CHANNELS 3 Xrotation Yrotation Zrotation
								JOINT RightShoulder_split
								{
									OFFSET -3.249400 8.794197 -1.372250
									CHANNELS 3 Xrotation Yrotation Zrotation
									JOINT RightArm
									{
										OFFSET -11.953299 -2.279007 -0.146200
										CHANNELS 3 Xrotation Yrotation Zrotation
										JOINT RightForeArm
										{
											OFFSET -18.448900 0.000000 0.000000
											CHANNELS 3 Xrotation Yrotation Zrotation
											JOINT RightHand
											{
												OFFSET -29.527802 0.000000 0.000000
												CHANNELS 3 Xrotation Yrotation Zrotation
												End Site
												{
													OFFSET 0 0 0
												}
											}
										}
									}
								}
							}
						}
					}
				}
			}
		}
	}
}
MOTION
Frames: 9
Frame Time: 0.03333333
54.732742 80.302803 223.291397 0.000000 0.000000 0.000000 2.278450 26.789332 -14.211920 -34.182573 12.297517 -0.102117 94.675124 5.787990 0.346241 26.937633 5.623433 21.495662 45.101819 -12.864624 -13.382843 0.000000 0.000000 0.000000 2.278450 26.789332 -14.211920 -56.139090 5.238283 -3.759503 52.641207 7.901299 -0.022013 -2.792529 2.530067 19.714508 -3.222720 0.000002 0.000000 0.000000 0.000000 0.000000 2.278450 26.789332 -14.211920 2.367415 -7.403724 -1.693227 2.171913 -3.807848 1.397094 0.000000 0.000000 0.000000 0.000000 0.000000 0.000000 2.111295 -3.874991 1.334496 2.146344 3.276998 0.282033 -11.327446 36.663752 5.753504 0.000000 0.000000 0.000000 2.111295 -3.874991 1.334496 0.543621 -1.205992 -9.510708 0.000000 0.000000 0.000000 18.985858 -16.238963 -51.504179 0.000003 -80.003297 -0.000002 0.000000 0.000000 0.000000 2.111295 -3.874991 1.334496 0.640668 -6.488264 9.965687 0.000000 0.000000 0.000000 34.769816 13.168156 44.617763 -179.999527 84.495512 179.999554 0.000000 0.000000 0.000000 
60.663727 79.634766 235.348969 0.000000 0.000000 0.000000 1.135715 28.065937 -15.194372 -59.973760 10.859489 6.229410 106.181486 5.997649 0.107740 25.204419 3.839754 21.809127 -56.404071 -15.325660 11.042233 0.000000 0.000000 0.000000 1.135715 28.065937 -15.194372 -49.970023 5.059863 -1.959214 62.940364 8.247365 0.177454 -17.609951 -0.331971 16.485425 -4.331980 0.000013 -0.000003 0.000000 0.000000 0.000000 1.135715 28.065937 -15.194372 4.409076 -2.739585 -1.252615 3.685480 -1.693003 1.426703 0.000000 0.000000 0.000000 0.000000 0.000000 0.000000 3.657015 -1.820083 1.396208 0.856921 2.472366 0.809335 -13.888076 30.928592 5.475026 0.000000 0.000000 0.000000 3.657015 -1.820083 1.396208 0.537710 -0.925235 -8.721431 0.000000 0.000000 0.000000 28.704785 -17.140802 -55.244353 0.000025 -63.812012 0.000038 0.000000 0.000000 0.000000 3.657015 -1.820083 1.396208 0.815847 -4.239267 12.335988 0.000000 0.000000 0.000000 15.586531 20.224405 47.923298 179.998120 87.388282 -179.998106 0.000000 0.000000 0.000000 
67.944641 79.015800 247.211029 0.000000 0.000000 0.000000 -0.014860 28.444536 -16.128826 -80.453604 8.462003 9.004220 105.603802 7.346703 0.116079 23.648265 3.082159 21.167231 -48.683932 -5.040869 4.213677 0.000000 0.000000 0.000000 -0.014860 28.444536 -16.128826 -38.137294 4.032784 -1.135535 65.674359 8.586218 0.513259 -30.200484 -1.352397 11.422305 -5.746962 0.000001 0.000002 0.000000 0.000000 0.000000 -0.014860 28.444536 -16.128826 5.600216 1.178510 0.024410 4.651098 0.654904 1.633864 0.000000 0.000000 0.000000 0.000000 0.000000 0.000000 4.657234 0.491976 1.673782 0.396496 1.761067 0.948539 -15.762635 26.254658 5.119159 0.000000 0.000000 0.000000 4.657234 0.491976 1.673782 0.472290 0.823555 -6.563497 0.000000 0.000000 0.000000 41.287039 -17.715620 -58.148693 0.000012 -58.979831 0.000010 0.000000 0.000000 0.000000 4.657234 0.491976 1.673782 0.625965 0.265411 11.021708 0.000000 0.000000 0.000000 -6.297821 23.802335 54.826902 -180.000005 83.353033 179.999991 0.000000 0.000000 0.000000 
67.944641 79.015800 247.211029 0.000000 0.000000 0.000000 -0.014860 28.444536 -16.128826 -80.453604 8.462003 9.004220 105.603802 7.346703 0.116079 23.648265 3.082159 21.167231 -48.683932 -5.040869 4.213677 0.000000 0.000000 0.000000 -0.014860 28.444536 -16.128826 -38.137294 4.032784 -1.135535 65.674359 8.586218 0.513259 -30.200484 -1.352397 11.422305 -5.746962 0.000001 0.000002 0.000000 0.000000 0.000000 -0.014860 28.444536 -16.128826 5.600216 1.178510 0.024410 4.651098 0.654904 1.633864 0.000000 0.000000 0.000000 0.000000 0.000000 0.000000 4.657234 0.491976 1.673782 0.396496 1.761067 0.948539 -15.762635 26.254658 5.119159 0.000000 0.000000 0.000000 4.657234 0.491976 1.673782 0.472290 0.823555 -6.563497 0.000000 0.000000 0.000000 41.287039 -17.715620 -58.148693 0.000012 -58.979831 0.000010 0.000000 0.000000 0.000000 4.657234 0.491976 1.673782 0.625965 0.265411 11.021708 0.000000 0.000000 0.000000 -6.297821 23.802335 54.826902 -180.000005 83.353033 179.999991 0.000000 0.000000 0.000000 
67.944641 79.015800 247.211029 0.000000 0.000000 0.000000 -0.014860 28.444536 -16.128826 -80.453604 8.462003 9.004220 105.603802 7.346703 0.116079 23.648265 3.082159 21.167231 -48.683932 -5.040869 4.213677 0.000000 0.000000 0.000000 -0.014860 28.444536 -16.128826 -38.137294 4.032784 -1.135535 65.674359 8.586218 0.513259 -30.200484 -1.352397 11.422305 -5.746962 0.000001 0.000002 0.000000 0.000000 0.000000 -0.014860 28.444536 -16.128826 5.600216 1.178510 0.024410 4.651098 0.654904 1.633864 0.000000 0.000000 0.000000 0.000000 0.000000 0.000000 4.657234 0.491976 1.673782 0.396496 1.761067 0.948539 -15.762635 26.254658 5.119159 0.000000 0.000000 0.000000 4.657234 0.491976 1.673782 0.472290 0.823555 -6.563497 0.000000 0.000000 0.000000 41.287039 -17.715620 -58.148693 0.000012 -58.979831 0.000010 0.000000 0.000000 0.000000 4.657234 0.491976 1.673782 0.625965 0.265411 11.021708 0.000000 0.000000 0.000000 -6.297821 23.802335 54.826902 -180.000005 83.353033 179.999991 0.000000 0.000000 0.000000 
67.944641 79.015800 247.211029 0.000000 0.000000 0.000000 -0.014860 28.444536 -16.128826 -80.453604 8.462003 9.004220 105.603802 7.346703 0.116079 23.648265 3.082159 21.167231 -48.683932 -5.040869 4.213677 0.000000 0.000000 0.000000 -0.014860 28.444536 -16.128826 -38.137294 4.032784 -1.135535 65.674359 8.586218 0.513259 -30.200484 -1.352397 11.422305 -5.746962 0.000001 0.000002 0.000000 0.000000 0.000000 -0.014860 28.444536 -16.128826 5.600216 1.178510 0.024410 4.651098 0.654904 1.633864 0.000000 0.000000 0.000000 0.000000 0.000000 0.000000 4.657234 0.491976 1.673782 0.396496 1.761067 0.948539 -15.762635 26.254658 5.119159 0.000000 0.000000 0.000000 4.657234 0.491976 1.673782 0.472290 0.823555 -6.563497 0.000000 0.000000 0.000000 41.287039 -17.715620 -58.148693 0.000012 -58.979831 0.000010 0.000000 0.000000 0.000000 4.657234 0.491976 1.673782 0.625965 0.265411 11.021708 0.000000 0.000000 0.000000 -6.297821 23.802335 54.826902 -180.000005 83.353033 179.999991 0.000000 0.000000 0.000000 
67.944641 79.015800 247.211029 0.000000 0.000000 0.000000 -0.014860 28.444536 -16.128826 -80.453604 8.462003 9.004220 105.603802 7.346703 0.116079 23.648265 3.082159 21.167231 -48.683932 -5.040869 4.213677 0.000000 0.000000 0.000000 -0.014860 28.444536 -16.128826 -38.137294 4.032784 -1.135535 65.674359 8.586218 0.513259 -30.200484 -1.352397 11.422305 -5.746962 0.000001 0.000002 0.000000 0.000000 0.000000 -0.014860 28.444536 -16.128826 5.600216 1.178510 0.024410 4.651098 0.654904 1.633864 0.000000 0.000000 0.000000 0.000000 0.000000 0.000000 4.657234 0.491976 1.673782 0.396496 1.761067 0.948539 -15.762635 26.254658 5.119159 0.000000 0.000000 0.000000 4.657234 0.491976 1.673782 0.472290 0.823555 -6.563497 0.000000 0.000000 0.000000 41.287039 -17.715620 -58.148693 0.000012 -58.979831 0.000010 0.000000 0.000000 0.000000 4.657234 0.491976 1.673782 0.625965 0.265411 11.021708 0.000000 0.000000 0.000000 -6.297821 23.802335 54.826902 -180.000005 83.353033 179.999991 0.000000 0.000000 0.000000 
67.944641 79.015800 247.211029 0.000000 0.000000 0.000000 -0.014860 28.444536 -16.128826 -80.453604 8.462003 9.004220 105.603802 7.346703 0.116079 23.648265 3.082159 21.167231 -48.683932 -5.040869 4.213677 0.000000 0.000000 0.000000 -0.014860 28.444536 -16.128826 -38.137294 4.032784 -1.135535 65.674359 8.586218 0.513259 -30.200484 -1.352397 11.422305 -5.746962 0.000001 0.000002 0.000000 0.000000 0.000000 -0.014860 28.444536 -16.128826 5.600216 1.178510 0.024410 4.651098 0.654904 1.633864 0.000000 0.000000 0.000000 0.000000 0.000000 0.000000 4.657234 0.491976 1.673782 0.396496 1.761067 0.948539 -15.762635 26.254658 5.119159 0.000000 0.000000 0.000000 4.657234 0.491976 1.673782 0.472290 0.823555 -6.563497 0.000000 0.000000 0.000000 41.287039 -17.715620 -58.148693 0.000012 -58.979831 0.000010 0.000000 0.000000 0.000000 4.657234 0.491976 1.673782 0.625965 0.265411 11.021708 0.000000 0.000000 0.000000 -6.297821 23.802335 54.826902 -180.000005 83.353033 179.999991 0.000000 0.000000 0.000000 
67.944641 79.015800 247.211029 0.000000 0.000000 0.000000 -0.014860 28.444536 -16.128826 -80.453604 8.462003 9.004220 105.603802 7.346703 0.116079 23.648265 3.082159 21.167231 -48.683932 -5.040869 4.213677 0.000000 0.000000 0.000000 -0.014860 28.444536 -16.128826 -38.137294 4.032784 -1.135535 65.674359 8.586218 0.513259 -30.200484 -1.352397 11.422305 -5.746962 0.000001 0.000002 0.000000 0.000000 0.000000 -0.014860 28.444536 -16.128826 5.600216 1.178510 0.024410 4.651098 0.654904 1.633864 0.000000 0.000000 0.000000 0.000000 0.000000 0.000000 4.657234 0.491976 1.673782 0.396496 1.761067 0.948539 -15.762635 26.254658 5.119159 0.000000 0.000000 0.000000 4.657234 0.491976 1.673782 0.472290 0.823555 -6.563497 0.000000 0.000000 0.000000 41.287039 -17.715620 -58.148693 0.000012 -58.979831 0.000010 0.000000 0.000000 0.000000 4.657234 0.491976 1.673782 0.625965 0.265411 11.021708 0.000000 0.000000 0.000000 -6.297821 23.802335 54.826902 -180.000005 83.353033 179.999991 0.000000 0.000000 0.000000 
